<svg width="111" height="13" viewBox="0 0 111 13" fill="none" xmlns="http://www.w3.org/2000/svg">
<path d="M27.6234 0.0098715V8.08485C27.6234 10.5232 30.0623 12.6727 32.9084 12.6727C34.9812 12.7898 38.5886 12.7731 41.5198 12.7731C44.8943 12.7731 47.3674 12.6727 49.651 12.6727C53.1535 12.6727 55.2346 10.4165 55.2346 8.08485V0.00990006L42.0161 0.00990007V9.36153C42.0161 9.36153 41.9906 9.36153 41.4375 9.36153C40.8845 9.36153 40.837 9.36153 40.837 9.36153V0.00990006L27.6234 0.0098715Z" fill="white"/>
<path d="M26.4527 3.57683V0.00984778H0V12.4207H13.3235V7.9633H26.4527V4.48371H13.3235V3.57683H26.4527Z" fill="white"/>
<path d="M69.6802 8.93129V8.00693H82.8411V4.29906H69.6802V3.47959H82.8411V1.29486e-06H56.3885V12.4109H82.8411V8.93129H69.6802Z" fill="white"/>
<path d="M83.9718 12.4109H110.175V8.98478L97.0436 8.98477V0L83.9718 1.29486e-06V12.4109Z" fill="white"/>
</svg>
